Fly_normalized_Motion_pl14
version=1
nRows=12
nColumns=43
inDegrees=yes
endheader
time		pelvis_tilt		pelvis_list		pelvis_rotation		pelvis_tx		pelvis_ty		pelvis_tz		hip_flexion_r		hip_adduction_r		hip_rotation_r		knee_angle_r		ankle_angle_r		subtalar_angle_r		mtp_angle_r		hip_flexion_l		hip_adduction_l		hip_rotation_l		knee_angle_l		ankle_angle_l		subtalar_angle_l		mtp_angle_l		lumbar_extension		lumbar_bending		lumbar_rotation		neck_flexion		neck_lateral_bending		neck_rotation		arm_flex_r		arm_add_r		arm_rot_r		elbow_flex_r		pro_sup_r		wrist_flex_r		wrist_dev_r		hand_finger_flex_r		arm_flex_l		arm_add_l		arm_rot_l		elbow_flex_l		pro_sup_l		wrist_flex_l		wrist_dev_l		hand_finger_flex_l		
0.579167		1.211338		-19.353729		85.714723		0.029180		1.846671		1.258301		65.564736		4.509704		-2.373413		-73.675653		-12.152326		-15.428232		23.033131		66.388863		-10.073537		-4.617769		-63.612944		-13.883107		1.611992		25.286798		-39.255662		-3.285909		0.413866		23.564860		-0.167719		3.292423		66.170679		-16.896147		19.261916		58.821150		108.892698		3.715498		8.324458		22.034730		73.605008		-21.463729		18.199841		65.642594		97.978162		-8.233641		6.506808		24.263317		
0.583535		1.034698		-19.192240		85.661950		0.028960		1.841605		1.250494		65.431864		4.368492		-2.286159		-72.096828		-12.437633		-15.665657		22.823062		66.033336		-10.085805		-5.148948		-62.190709		-14.255467		1.773161		25.230298		-39.460461		-3.490069		0.407469		23.544713		-0.243512		3.165152		63.765635		-17.390206		18.839692		58.355340		109.669298		3.696055		8.674435		21.616297		71.434882		-21.726072		17.797361		65.469216		98.372909		-8.228694		6.423701		24.588943		
0.587904		0.876064		-19.024661		85.650877		0.028657		1.836235		1.242535		65.252019		4.199908		-2.198418		-70.526054		-12.669470		-15.808003		22.574813		65.668945		-10.095403		-5.704930		-60.811388		-14.644033		1.919985		25.162130		-39.654523		-3.639544		0.384869		23.510275		-0.341718		3.040024		61.289377		-17.842880		18.292794		57.880622		110.513993		3.762269		8.954249		21.079885		69.173740		-22.011339		17.327923		65.327904		98.870081		-8.195467		6.299821		25.034284		
0.592273		0.860090		-18.842240		85.775871		0.028248		1.830610		1.234473		65.003156		3.982278		-2.311179		-68.963497		-12.738486		-15.659158		22.450066		65.313102		-10.096748		-6.089280		-59.463899		-15.070801		2.150420		25.127785		-39.856494		-3.593062		0.333347		23.457980		-0.516578		2.925589		58.863970		-18.309928		17.928020		57.263463		110.589857		3.680568		8.962049		20.808517		66.860724		-22.432208		16.960068		65.221434		98.855334		-8.271166		6.177830		25.227217		
0.596641		0.798558		-18.627130		85.892990		0.027750		1.824896		1.226224		64.676419		3.710954		-2.398886		-67.404896		-12.791993		-15.412759		22.219280		64.845896		-10.039440		-6.499537		-58.049009		-15.565550		2.339876		25.072497		-40.091737		-3.540807		0.205014		23.482429		-0.802385		2.824198		56.368445		-18.624073		17.381380		56.655267		110.939335		3.414459		9.024740		20.271810		64.377964		-22.764677		16.161432		65.125596		98.986131		-8.259389		6.030250		25.606196		
0.601010		0.791598		-18.430711		86.036717		0.027240		1.818686		1.217930		64.368000		3.469399		-2.514641		-65.884574		-12.918747		-15.190295		22.040730		64.436440		-10.027538		-6.933405		-56.744372		-15.846468		2.455488		25.032798		-40.251132		-3.451175		0.159154		23.327253		-0.964797		2.772682		53.952289		-19.178353		17.194051		56.015039		111.183515		3.366885		9.124622		19.956158		62.029531		-23.240801		15.821422		64.978119		99.124554		-8.126740		6.005777		25.914712		
0.605379		0.758221		-18.087136		86.171914		0.026747		1.812466		1.209216		63.905326		3.187794		-2.633382		-64.470913		-13.157236		-14.892725		21.765627		63.838378		-10.011087		-7.410391		-55.493949		-16.363972		2.720100		24.963755		-40.570041		-3.339436		0.040621		23.266828		-1.379025		2.642774		51.355111		-19.512009		16.575257		55.479248		111.393670		3.038451		9.072969		19.360800		59.334063		-23.513779		14.693746		64.967023		99.249931		-7.963933		5.902421		26.350125		
0.609747		0.759734		-17.710518		86.311375		0.026142		1.806254		1.200509		63.303741		2.913935		-2.818044		-62.948799		-13.113072		-14.583679		20.866725		63.130788		-9.952641		-7.799452		-54.167030		-16.542972		2.855489		24.689010		-40.942303		-3.194502		-0.193714		23.296904		-1.570164		2.831793		49.038425		-19.742038		16.123975		54.753185		112.689691		3.664682		9.026216		17.606429		56.512936		-23.524356		12.580195		64.935529		101.257316		-6.525951		5.998134		27.755175		
0.614116		0.799574		-17.503691		86.434192		0.025740		1.799083		1.192013		62.977574		2.764098		-2.942791		-61.580248		-13.448504		-14.379997		20.642787		62.680291		-9.941941		-8.079055		-52.935690		-16.775588		3.032769		24.619474		-41.035960		-3.080924		-0.180895		23.007880		-1.744766		2.738458		46.572016		-20.274761		15.822290		54.072823		112.656750		3.817840		8.975525		17.299266		54.093384		-23.958193		12.208181		64.657235		101.489502		-6.405735		5.977846		27.924316		
0.618485		0.810470		-17.202543		86.576136		0.025204		1.791867		1.183279		62.522775		2.570710		-3.059603		-60.229087		-13.804314		-14.262259		20.409278		62.164901		-9.883057		-8.348320		-51.849543		-17.114806		3.315557		24.533344		-41.237597		-2.965722		-0.179268		22.876702		-1.955026		2.601807		44.065089		-20.642386		15.094304		53.260022		112.558461		3.872388		8.856238		16.973918		51.556410		-24.165390		11.564708		64.381825		101.625812		-6.531993		5.812357		27.904302		
0.622854		0.815056		-16.784029		86.717925		0.024598		1.784636		1.174391		61.953710		2.353042		-3.212396		-58.957261		-14.181433		-14.130493		20.160342		61.480434		-9.804502		-8.623867		-50.752518		-17.402831		3.580800		24.449145		-41.560087		-2.846164		-0.239168		22.674197		-2.115692		2.513152		41.594909		-20.914710		14.279388		52.464617		112.649406		4.002350		8.744159		16.750473		48.989039		-24.400635		10.856130		64.112411		101.915146		-6.641416		5.656895		27.871371		
0.627222		0.793504		-16.020277		86.857782		0.023986		1.778122		1.165169		60.907058		2.114902		-3.376389		-57.616469		-14.242055		-14.024720		19.339643		60.311688		-9.674207		-8.913746		-49.554182		-17.486315		3.875257		24.139525		-42.339174		-2.769725		-0.401351		22.789254		-2.154536		2.592202		39.178456		-20.878542		12.633310		51.730455		114.554379		5.403141		8.407945		16.305666		46.372644		-24.414448		9.404389		63.960273		103.894374		-6.066196		5.368971		27.854872		
